<svg xmlns="http://www.w3.org/2000/svg" version="1.1" xmlns:xlink="http://www.w3.org/1999/xlink" xmlns:svgjs="http://svgjs.dev/svgjs" width="2000" height="1247" viewBox="0 0 2000 1247"><g transform="matrix(1,0,0,1,-1.2121212121212466,0.504858299595071)"><svg viewBox="0 0 396 247" data-background-color="#ffffff" preserveAspectRatio="xMidYMid meet" height="1247" width="2000" xmlns="http://www.w3.org/2000/svg" xmlns:xlink="http://www.w3.org/1999/xlink"><g id="tight-bounds" transform="matrix(1,0,0,1,0.2400000000000091,-0.09999999999999432)"><svg viewBox="0 0 395.52 247.2" height="247.2" width="395.52"><g><svg></svg></g><g><svg viewBox="0 0 395.52 247.2" height="247.2" width="395.52"><g transform="matrix(1,0,0,1,75.54432,54.00138644210526)"><svg viewBox="0 0 244.43135999999998 139.19722711578947" height="139.19722711578947" width="244.43135999999998"><g><svg viewBox="0 0 244.43135999999998 139.19722711578947" height="139.19722711578947" width="244.43135999999998"><g><svg viewBox="0 0 244.43135999999998 139.19722711578947" height="139.19722711578947" width="244.43135999999998"><g><svg viewBox="0 0 244.43135999999998 139.19722711578947" height="139.19722711578947" width="244.43135999999998"><g><svg viewBox="0 0 244.43135999999998 139.19722711578947" height="139.19722711578947" width="244.43135999999998"><g><svg viewBox="0 0 244.43135999999998 139.19722711578947" height="139.19722711578947" width="244.43135999999998"><g transform="matrix(1,0,0,1,0,0)"><svg width="244.43135999999998" viewBox="-11.1 -26.45 47.5 27.05" height="139.19722711578947" data-palette-color="#ff0000"><path d="M10.65-12.05L10.25-9.8-10.95-12.05 10.65-12.05ZM11.5-16.85L11.1-14.6-10.1-16.85 11.5-16.85ZM12.35-21.65L11.95-19.4-9.25-21.65 12.35-21.65ZM13.15-26.45L12.8-24.2-8.4-26.45 13.15-26.45ZM-11.1-7.25L10.05-7.25 10.05-6.25Q10.05-5.4 10.1-5L10.1-5-11.1-7.25ZM12-0.15L12-0.15-9.2-2.4 10.55-2.4Q11.1-1 12-0.15ZM19.75-7L22.25-7Q23.6-7 24.13-7.33 24.65-7.65 24.85-8.9L24.85-8.9 28-26.45 36.4-26.45 33.8-11.55Q32.6-4.55 29.93-1.98 27.25 0.6 20.8 0.6L20.8 0.6Q15.65 0.6 13.6-0.93 11.55-2.45 11.55-6.25L11.55-6.25Q11.55-8.35 12.1-11.55L12.1-11.55 14.75-26.45 23.15-26.45 19.75-7Z" opacity="1" transform="matrix(1,0,0,1,0,0)" fill="#ff0000" class="undefined-text-0" data-fill-palette-color="primary" id="text-0"></path></svg></g></svg></g></svg></g></svg></g></svg></g></svg></g></svg></g><path d="M250.936 48.001L250.936 3.563 10.862 3.563 10.862 243.637 250.936 243.637 250.936 199.199 238.383 199.199 238.383 231.084 23.415 231.084 23.415 16.116 238.383 16.116 238.383 48.001Z" fill="#ff0000" stroke="transparent" data-fill-palette-color="primary"></path></svg></g><defs></defs></svg><rect width="395.52" height="247.2" fill="none" stroke="none" visibility="hidden"></rect></g></svg></g></svg>